<svg xmlns="http://www.w3.org/2000/svg" viewBox="0 0 800 420"><rect width="800" height="420" rx="28" fill="#102033"/><line x1="400" y1="35" x2="400" y2="385" stroke="#29445d" stroke-width="3"/><g fill="none" stroke="#4da3ff" stroke-width="18" stroke-linecap="round" stroke-linejoin="round"><circle cx="200" cy="90" r="30"/><path d="M200 120v150M200 160l-60 50M200 160l60 50M200 270l-45 75M200 270l45 75"/><circle cx="600" cy="75" r="30"/><path d="M600 105v145M600 145l-60 50M600 145l60 50M600 250l-35 80M600 250l35 80"/></g><line x1="130" y1="355" x2="270" y2="355" stroke="#52718c" stroke-width="8"/><line x1="530" y1="330" x2="670" y2="330" stroke="#52718c" stroke-width="8"/><text x="200" y="395" fill="white" font-size="22" text-anchor="middle" font-family="Arial">1. HEELS DOWN</text><text x="600" y="370" fill="white" font-size="22" text-anchor="middle" font-family="Arial">2. RISE UP</text><text x="400" y="28" fill="#9ecbff" font-size="18" text-anchor="middle" font-family="Arial">CALF RAISES</text></svg>